# Blender v2.79 (sub 0) OBJ File: 'scene_with_spheres_and_ball.blend'
# www.blender.org
mtllib cube2.mtl
o cube2_Cube.003
v 2.685719 0.111059 1.555529
v 2.685719 1.111059 1.555529
v 2.073813 0.111059 0.764598
v 2.073813 1.111059 0.764598
v 2.875338 0.111059 1.408830
v 2.875338 1.111059 1.408830
v 2.263432 0.111059 0.617899
v 2.263432 1.111059 0.617899
vt 0.837566 0.299647
vt 0.837566 0.400459
vt 0.736754 0.400459
vt 0.736754 0.299647
vt 0.986716 0.299647
vt 0.986716 0.400459
vt 0.962547 0.400459
vt 0.962547 0.299647
vt 0.861735 0.400459
vt 0.861735 0.299647
vt 0.962547 0.275478
vt 0.861735 0.275478
vt 0.962547 0.424627
vt 0.861735 0.424627
vn -0.7909 0.0000 0.6119
vn -0.6119 0.0000 -0.7909
vn 0.7909 0.0000 -0.6119
vn 0.6119 0.0000 0.7909
vn 0.0000 -1.0000 -0.0000
vn 0.0000 1.0000 0.0000
usemtl cube2
s off
f 1/1/1 2/2/1 4/3/1 3/4/1
f 3/5/2 4/6/2 8/7/2 7/8/2
f 7/8/3 8/7/3 6/9/3 5/10/3
f 5/10/4 6/9/4 2/2/4 1/1/4
f 3/11/5 7/8/5 5/10/5 1/12/5
f 8/7/6 4/13/6 2/14/6 6/9/6
