# Blender v2.79 (sub 0) OBJ File: 'scene_with_spheres_and_ball.blend'
# www.blender.org
mtllib floor.mtl
o floor_Cube
v 4.000000 -0.100000 -2.000000
v 4.000000 -0.100000 2.000000
v -4.000000 -0.100000 2.000000
v -3.999999 -0.100000 -2.000001
v 4.000002 0.100000 -1.999999
v 3.999997 0.100000 2.000001
v -4.000001 0.100000 1.999999
v -4.000000 0.100000 -2.000000
vt 0.629875 0.133155
vt 0.629875 0.189636
vt 0.516913 0.189636
vt 0.516913 0.133155
vt 0.760825 0.127136
vt 0.522862 0.127136
vt 0.522862 0.008155
vt 0.760825 0.008155
vt 0.766774 0.127136
vt 0.766774 0.008155
vt 0.760825 0.002206
vt 0.522862 0.002206
vt 0.516913 0.008155
vt 0.516913 0.127136
vt 0.760825 0.133085
vt 0.522862 0.133085
vn 0.0000 -1.0000 0.0000
vn 0.0000 1.0000 0.0000
vn 1.0000 0.0000 0.0000
vn -0.0000 -0.0000 1.0000
vn -1.0000 -0.0000 -0.0000
vn 0.0000 0.0000 -1.0000
usemtl floor
s off
f 1/1/1 2/2/1 3/3/1 4/4/1
f 5/5/2 8/6/2 7/7/2 6/8/2
f 1/9/3 5/5/3 6/8/3 2/10/3
f 2/11/4 6/8/4 7/7/4 3/12/4
f 3/13/5 7/7/5 8/6/5 4/14/5
f 5/5/6 1/15/6 4/16/6 8/6/6
